<?xml version="1.0" encoding="UTF-8"?>
<svg width="700pt" height="700pt" version="1.1" viewBox="0 0 700 700" xmlns="http://www.w3.org/2000/svg" xmlns:xlink="http://www.w3.org/1999/xlink">
 <defs>
  <symbol id="w" overflow="visible">
   <path d="m3.6875-0.21875c-0.1875 0.09375-0.38672 0.16797-0.59375 0.21875-0.19922 0.050781-0.41406 0.078125-0.64062 0.078125-0.66797 0-1.1992-0.1875-1.5938-0.5625-0.38672-0.375-0.57812-0.87891-0.57812-1.5156 0-0.64453 0.19141-1.1562 0.57812-1.5312 0.39453-0.375 0.92578-0.5625 1.5938-0.5625 0.22656 0 0.44141 0.027344 0.64062 0.078125 0.20703 0.054687 0.40625 0.125 0.59375 0.21875v0.82812c-0.1875-0.125-0.375-0.21875-0.5625-0.28125s-0.38672-0.09375-0.59375-0.09375c-0.36719 0-0.65625 0.12109-0.875 0.35938-0.21094 0.24219-0.3125 0.57031-0.3125 0.98438 0 0.40625 0.10156 0.73047 0.3125 0.96875 0.21875 0.24219 0.50781 0.35938 0.875 0.35938 0.20703 0 0.40625-0.03125 0.59375-0.09375s0.375-0.15625 0.5625-0.28125z"/>
  </symbol>
  <symbol id="b" overflow="visible">
   <path d="m2.7031-2.1875c-0.085937-0.039062-0.16797-0.070312-0.25-0.09375-0.085937-0.019531-0.16797-0.03125-0.25-0.03125-0.25 0-0.44531 0.085938-0.57812 0.25-0.13672 0.15625-0.20312 0.38281-0.20312 0.67188v1.3906h-0.95312v-3.0156h0.95312v0.5c0.125-0.19531 0.26562-0.34375 0.42188-0.4375 0.16406-0.09375 0.36328-0.14062 0.59375-0.14062 0.03125 0 0.0625 0.007812 0.09375 0.015625 0.039062 0 0.097656 0.007813 0.17188 0.015625z"/>
  </symbol>
  <symbol id="a" overflow="visible">
   <path d="m3.4688-1.5156v0.28125h-2.25c0.019531 0.21875 0.097656 0.38672 0.23438 0.5 0.14453 0.11719 0.34375 0.17188 0.59375 0.17188 0.20703 0 0.41406-0.03125 0.625-0.09375 0.21875-0.0625 0.4375-0.14844 0.65625-0.26562v0.73438c-0.23047 0.09375-0.46094 0.16406-0.6875 0.20312-0.21875 0.039062-0.44531 0.0625-0.67188 0.0625-0.55469 0-0.98047-0.13281-1.2812-0.40625-0.30469-0.28125-0.45312-0.67188-0.45312-1.1719s0.14453-0.89062 0.4375-1.1719c0.30078-0.28125 0.71094-0.42188 1.2344-0.42188 0.47656 0 0.85938 0.14844 1.1406 0.4375 0.28125 0.28125 0.42188 0.66406 0.42188 1.1406zm-0.98438-0.32812c0-0.17578-0.058594-0.32031-0.17188-0.4375-0.10547-0.11328-0.24219-0.17188-0.40625-0.17188-0.1875 0-0.33984 0.054687-0.45312 0.15625-0.11719 0.10547-0.1875 0.25781-0.21875 0.45312z"/>
  </symbol>
  <symbol id="e" overflow="visible">
   <path d="m1.8125-1.3594c-0.19922 0-0.35156 0.039063-0.45312 0.10938-0.10547 0.0625-0.15625 0.16406-0.15625 0.29688 0 0.125 0.039063 0.22656 0.125 0.29688 0.082031 0.0625 0.19531 0.09375 0.34375 0.09375 0.17578 0 0.32812-0.0625 0.45312-0.1875 0.125-0.13281 0.1875-0.30078 0.1875-0.5v-0.10938zm1.4688-0.35938v1.7188h-0.96875v-0.45312c-0.125 0.1875-0.27344 0.32422-0.4375 0.40625-0.15625 0.082031-0.35156 0.125-0.57812 0.125-0.3125 0-0.57031-0.085938-0.76562-0.26562-0.19922-0.1875-0.29688-0.42578-0.29688-0.71875 0-0.35156 0.11719-0.61328 0.35938-0.78125 0.25-0.16406 0.63281-0.25 1.1562-0.25h0.5625v-0.0625c0-0.15625-0.0625-0.26953-0.1875-0.34375-0.11719-0.070312-0.29688-0.10938-0.54688-0.10938-0.21094 0-0.40234 0.023437-0.57812 0.0625-0.17969 0.042969-0.34375 0.10547-0.5 0.1875v-0.73438c0.20703-0.050781 0.41406-0.085938 0.625-0.10938 0.20703-0.03125 0.41406-0.046875 0.625-0.046875 0.53906 0 0.92969 0.10938 1.1719 0.32812 0.23828 0.21094 0.35938 0.55859 0.35938 1.0469z"/>
  </symbol>
  <symbol id="c" overflow="visible">
   <path d="m1.5156-3.875v0.85938h1v0.6875h-1v1.2812c0 0.13672 0.023437 0.23047 0.078125 0.28125 0.0625 0.054687 0.17578 0.078125 0.34375 0.078125h0.48438v0.6875h-0.82812c-0.375 0-0.64844-0.078125-0.8125-0.23438-0.15625-0.16406-0.23438-0.4375-0.23438-0.8125v-1.2812h-0.46875v-0.6875h0.46875v-0.85938z"/>
  </symbol>
  <symbol id="k" overflow="visible">
   <path d="m2.5156-2.5781v-1.6094h0.96875v4.1875h-0.96875v-0.4375c-0.13672 0.17969-0.28125 0.30859-0.4375 0.39062-0.15625 0.082031-0.34375 0.125-0.5625 0.125-0.36719 0-0.66797-0.14453-0.90625-0.4375-0.24219-0.30078-0.35938-0.67969-0.35938-1.1406 0-0.46875 0.11719-0.84766 0.35938-1.1406 0.23828-0.30078 0.53906-0.45312 0.90625-0.45312 0.20703 0 0.39062 0.042969 0.54688 0.125 0.16406 0.085938 0.31641 0.21484 0.45312 0.39062zm-0.64062 1.9531c0.20703 0 0.36328-0.070312 0.46875-0.21875 0.11328-0.15625 0.17188-0.375 0.17188-0.65625 0-0.28906-0.058594-0.50781-0.17188-0.65625-0.10547-0.15625-0.26172-0.23438-0.46875-0.23438-0.19922 0-0.35547 0.078125-0.46875 0.23438-0.10547 0.14844-0.15625 0.36719-0.15625 0.65625 0 0.28125 0.050781 0.5 0.15625 0.65625 0.11328 0.14844 0.26953 0.21875 0.46875 0.21875z"/>
  </symbol>
  <symbol id="j" overflow="visible">
   <path d="m2.0625-0.625c0.20703 0 0.36328-0.070312 0.46875-0.21875 0.11328-0.15625 0.17188-0.375 0.17188-0.65625 0-0.28906-0.058594-0.50781-0.17188-0.65625-0.10547-0.15625-0.26172-0.23438-0.46875-0.23438-0.19922 0-0.35547 0.078125-0.46875 0.23438-0.11719 0.14844-0.17188 0.36719-0.17188 0.65625 0 0.28125 0.054687 0.5 0.17188 0.65625 0.11328 0.14844 0.26953 0.21875 0.46875 0.21875zm-0.64062-1.9531c0.13281-0.17578 0.28125-0.30469 0.4375-0.39062 0.16406-0.082031 0.35156-0.125 0.5625-0.125 0.375 0 0.67969 0.15234 0.92188 0.45312 0.23828 0.29297 0.35938 0.67188 0.35938 1.1406 0 0.46094-0.12109 0.83984-0.35938 1.1406-0.24219 0.29297-0.54688 0.4375-0.92188 0.4375-0.21094 0-0.39844-0.042969-0.5625-0.125-0.15625-0.082031-0.30469-0.21094-0.4375-0.39062v0.4375h-0.95312v-4.1875h0.95312z"/>
  </symbol>
  <symbol id="i" overflow="visible">
   <path d="m0.0625-3.0156h0.96875l0.8125 2.0469 0.6875-2.0469h0.96875l-1.2656 3.2969c-0.13672 0.34375-0.28906 0.57812-0.45312 0.70312-0.16797 0.13281-0.39062 0.20312-0.67188 0.20312h-0.5625v-0.625h0.3125c0.15625 0 0.26953-0.027344 0.34375-0.078125 0.082031-0.054687 0.14453-0.14844 0.1875-0.28125l0.015625-0.09375z"/>
  </symbol>
  <symbol id="h" overflow="visible">
   <path d="m2.9531-0.73438h-1.625l-0.26562 0.73438h-1.0312l1.4844-4.0156h1.2344l1.4844 4.0156h-1.0312zm-1.375-0.75h1.1094l-0.54688-1.5938z"/>
  </symbol>
  <symbol id="v" overflow="visible">
   <path d="m0.46875-4.1875h0.95312v4.1875h-0.95312z"/>
  </symbol>
  <symbol id="u" overflow="visible">
   <path d="m1.2188-1.5469-1.0781-1.4688h1.0156l0.625 0.89062 0.625-0.89062h1.0156l-1.0938 1.4688 1.1406 1.5469h-1.0156l-0.67188-0.95312-0.67188 0.95312h-1.0312z"/>
  </symbol>
  <symbol id="t" overflow="visible">
   <path d="m0.5-4.0156h1.3281l0.90625 2.1406 0.92188-2.1406h1.3281v4.0156h-0.98438v-2.9375l-0.92188 2.1719h-0.65625l-0.9375-2.1719v2.9375h-0.98438z"/>
  </symbol>
  <symbol id="g" overflow="visible">
   <path d="m0.4375-1.1719v-1.8438h0.96875v0.29688c0 0.16797-0.007812 0.375-0.015625 0.625v0.48438c0 0.25 0.003906 0.42969 0.015625 0.53125 0.019531 0.10547 0.046875 0.18359 0.078125 0.23438 0.03125 0.0625 0.078125 0.10938 0.14062 0.14062 0.070312 0.03125 0.14844 0.046875 0.23438 0.046875 0.19531 0 0.35156-0.070312 0.46875-0.21875 0.11328-0.15625 0.17188-0.375 0.17188-0.65625v-1.4844h0.96875v3.0156h-0.96875v-0.4375c-0.14844 0.17969-0.30469 0.30859-0.46875 0.39062-0.15625 0.082031-0.33594 0.125-0.53125 0.125-0.34375 0-0.60938-0.10156-0.79688-0.3125-0.17969-0.21875-0.26562-0.53125-0.26562-0.9375z"/>
  </symbol>
  <symbol id="f" overflow="visible">
   <path d="m0.078125-3.0156h0.96875l0.75 2.0781 0.75-2.0781h0.96875l-1.1875 3.0156h-1.0625z"/>
  </symbol>
  <symbol id="s" overflow="visible">
   <path d="m2.4531-4.1875v0.625h-0.53125c-0.14844 0-0.24609 0.027344-0.29688 0.078125-0.054688 0.054687-0.078125 0.14062-0.078125 0.26562v0.20312h0.82812v0.6875h-0.82812v2.3281h-0.96875v-2.3281h-0.46875v-0.6875h0.46875v-0.20312c0-0.33203 0.09375-0.57812 0.28125-0.73438s0.46875-0.23438 0.84375-0.23438z"/>
  </symbol>
  <symbol id="d" overflow="visible">
   <path d="m1.9062-2.4062c-0.21875 0-0.38672 0.078125-0.5 0.23438-0.11719 0.15625-0.17188 0.38281-0.17188 0.67188 0 0.28125 0.054687 0.5 0.17188 0.65625 0.11328 0.15625 0.28125 0.23438 0.5 0.23438 0.20703 0 0.36328-0.078125 0.46875-0.23438 0.11328-0.15625 0.17188-0.375 0.17188-0.65625 0-0.28906-0.058594-0.51562-0.17188-0.67188-0.10547-0.15625-0.26172-0.23438-0.46875-0.23438zm0-0.6875c0.50781 0 0.91016 0.14062 1.2031 0.42188 0.28906 0.28125 0.4375 0.67188 0.4375 1.1719 0 0.49219-0.14844 0.875-0.4375 1.1562-0.29297 0.28125-0.69531 0.42188-1.2031 0.42188-0.52344 0-0.93359-0.14062-1.2344-0.42188-0.29297-0.28125-0.4375-0.66406-0.4375-1.1562 0-0.5 0.14453-0.89062 0.4375-1.1719 0.30078-0.28125 0.71094-0.42188 1.2344-0.42188z"/>
  </symbol>
  <symbol id="r" overflow="visible">
   <path d="m3.2656-2.5156c0.11328-0.1875 0.25391-0.32812 0.42188-0.42188 0.17578-0.10156 0.36328-0.15625 0.5625-0.15625 0.34375 0 0.60156 0.10938 0.78125 0.32812 0.1875 0.21094 0.28125 0.51562 0.28125 0.92188v1.8438h-0.96875v-1.5781-0.0625-0.10938c0-0.21875-0.03125-0.375-0.09375-0.46875s-0.16406-0.14062-0.29688-0.14062c-0.1875 0-0.33594 0.078125-0.4375 0.23438-0.09375 0.14844-0.14062 0.35938-0.14062 0.64062v1.4844h-0.96875v-1.5781c0-0.33203-0.03125-0.54688-0.09375-0.64062-0.054688-0.09375-0.15625-0.14062-0.3125-0.14062-0.17969 0-0.32031 0.078125-0.42188 0.23438-0.10547 0.14844-0.15625 0.35938-0.15625 0.64062v1.4844h-0.96875v-3.0156h0.96875v0.4375c0.125-0.16406 0.25781-0.28906 0.40625-0.375 0.15625-0.09375 0.32812-0.14062 0.51562-0.14062 0.20703 0 0.39062 0.054688 0.54688 0.15625 0.16406 0.10547 0.28906 0.24609 0.375 0.42188z"/>
  </symbol>
  <symbol id="q" overflow="visible">
   <path d="m3.5-1.8438v1.8438h-0.96875v-1.4062c0-0.25781-0.011719-0.4375-0.03125-0.53125-0.011719-0.10156-0.027344-0.17578-0.046875-0.21875-0.042969-0.0625-0.09375-0.10938-0.15625-0.14062-0.0625-0.039063-0.13672-0.0625-0.21875-0.0625-0.21094 0-0.37109 0.078125-0.48438 0.23438-0.11719 0.15625-0.17188 0.37109-0.17188 0.64062v1.4844h-0.95312v-4.1875h0.95312v1.6094c0.14453-0.17578 0.30078-0.30469 0.46875-0.39062 0.16406-0.082031 0.34766-0.125 0.54688-0.125 0.34375 0 0.60156 0.10938 0.78125 0.32812 0.1875 0.21094 0.28125 0.51562 0.28125 0.92188z"/>
  </symbol>
  <symbol id="p" overflow="visible">
   <path d="m0.5-4.0156h1.1719l1.4531 2.75v-2.75h0.98438v4.0156h-1.1562l-1.4688-2.7656v2.7656h-0.98438z"/>
  </symbol>
  <symbol id="o" overflow="visible">
   <path d="m3.5-1.8438v1.8438h-0.96875v-1.4062c0-0.25781-0.011719-0.4375-0.03125-0.53125-0.011719-0.10156-0.027344-0.17578-0.046875-0.21875-0.042969-0.0625-0.09375-0.10938-0.15625-0.14062-0.0625-0.039063-0.13672-0.0625-0.21875-0.0625-0.21094 0-0.37109 0.078125-0.48438 0.23438-0.11719 0.15625-0.17188 0.37109-0.17188 0.64062v1.4844h-0.95312v-3.0156h0.95312v0.4375c0.14453-0.17578 0.30078-0.30469 0.46875-0.39062 0.16406-0.082031 0.34766-0.125 0.54688-0.125 0.34375 0 0.60156 0.10938 0.78125 0.32812 0.1875 0.21094 0.28125 0.51562 0.28125 0.92188z"/>
  </symbol>
  <symbol id="n" overflow="visible">
   <path d="m0.5-4.0156h1.7344c0.50781 0 0.89844 0.11719 1.1719 0.34375 0.26953 0.21875 0.40625 0.54297 0.40625 0.96875 0 0.41797-0.13672 0.74219-0.40625 0.96875-0.27344 0.23047-0.66406 0.34375-1.1719 0.34375h-0.6875v1.3906h-1.0469zm1.0469 0.75v1.125h0.5625c0.20703 0 0.36328-0.046875 0.46875-0.14062 0.11328-0.10156 0.17188-0.24219 0.17188-0.42188 0-0.1875-0.058594-0.32812-0.17188-0.42188-0.10547-0.09375-0.26172-0.14062-0.46875-0.14062z"/>
  </symbol>
  <symbol id="m" overflow="visible">
   <path d="m0.46875-3.0156h0.95312v2.9688c0 0.39453-0.10156 0.69531-0.29688 0.90625-0.1875 0.21875-0.46484 0.32812-0.82812 0.32812h-0.48438v-0.625h0.17188c0.1875 0 0.3125-0.042969 0.375-0.125 0.070313-0.085938 0.10938-0.24609 0.10938-0.48438zm0-1.1719h0.95312v0.78125h-0.95312z"/>
  </symbol>
  <symbol id="l" overflow="visible">
   <path d="m2.9062-2.9219v0.78125c-0.13672-0.082031-0.27344-0.14453-0.40625-0.1875-0.125-0.050781-0.26172-0.078125-0.40625-0.078125-0.27344 0-0.48438 0.085938-0.64062 0.25-0.14844 0.15625-0.21875 0.375-0.21875 0.65625s0.070313 0.5 0.21875 0.65625c0.15625 0.15625 0.36719 0.23438 0.64062 0.23438 0.15625 0 0.30078-0.019531 0.4375-0.0625 0.13281-0.050781 0.25781-0.11719 0.375-0.20312v0.78125c-0.15625 0.0625-0.3125 0.10156-0.46875 0.125-0.15625 0.03125-0.3125 0.046875-0.46875 0.046875-0.54297 0-0.96875-0.14062-1.2812-0.42188-0.30469-0.28125-0.45312-0.66406-0.45312-1.1562 0-0.5 0.14844-0.89062 0.45312-1.1719 0.3125-0.28125 0.73828-0.42188 1.2812-0.42188 0.16406 0 0.32031 0.015625 0.46875 0.046875 0.15625 0.03125 0.3125 0.074219 0.46875 0.125z"/>
  </symbol>
 </defs>
 <path transform="matrix(1.1024 0 0 1.1024 70 0)" d="m109 275c-39 0-69.999-30.999-69.999-69 0-39 30.999-69.999 69.999-69.999" fill="none" stroke="#000" stroke-linecap="round" stroke-linejoin="round" stroke-width="7.62"/>
 <path transform="matrix(1.1024 0 0 1.1024 70 0)" d="m226 67.001c14-5.9992 29-9.9998 44-9.9998 34 0 64 16.998 82.001 42.001" fill="none" stroke="#000" stroke-linecap="round" stroke-linejoin="round" stroke-width="7.62"/>
 <path transform="matrix(1.1024 0 0 1.1024 70 0)" d="m412 163c30.999 0 55.998 25 55.998 55.998 0 30.999-25 55.998-55.998 55.998" fill="none" stroke="#000" stroke-linecap="round" stroke-linejoin="round" stroke-width="7.62"/>
 <path transform="matrix(1.1024 0 0 1.1024 70 0)" d="m109 275h308" fill="none" stroke="#000" stroke-linecap="round" stroke-linejoin="round" stroke-width="7.62"/>
 <path transform="matrix(1.1024 0 0 1.1024 70 0)" d="m109 136c6.9985 0.99928 15 0.99928 22.002 3.0014 8.0013 0.99928 15 4.0006 20 5.9992 5.9992 3.0014 9.0006 4.9999 10.999 6.9985l1.9985 0.99928" fill="none" stroke="#000" stroke-linecap="round" stroke-linejoin="round" stroke-width="7.62"/>
 <path transform="matrix(1.1024 0 0 1.1024 70 0)" d="m164 153c0.99927-4.0006 0.99927-8.0013 3.0014-13.001 0.99927-4.9999 3.0014-11.998 5.9992-19 3.0014-6.9985 6.9985-14 10.999-20 4.9999-5.9992 9.9998-10.999 15-15.999 4.9999-4.0006 9.9998-8.0013 14-10.999 4.9999-3.0014 9.9998-4.9999 15-8.0013" fill="none" stroke="#000" stroke-linecap="round" stroke-linejoin="round" stroke-width="7.62"/>
 <path transform="matrix(1.1024 0 0 1.1024 70 0)" d="m412 163h-10.999c-4.0006 0-6.9985 0.99927-11.998 1.9985-4.0006 0.99927-8.0013 3.0014-10.999 4.0006-3.0014 0.99928-4.0006 1.9986-5.9992 3.0014" fill="none" stroke="#000" stroke-linecap="round" stroke-linejoin="round" stroke-width="7.62"/>
 <path transform="matrix(1.1024 0 0 1.1024 70 0)" d="m372 172c0.99928-5.9992 0.99928-10.999 0-16.998 0-5.9992-0.99928-11.998-1.9985-16.998-0.99928-4.9999-1.9985-9.9998-4.0006-14-1.9985-4.9999-4.0006-9.9998-6.9985-14-1.9985-4.0006-4.9999-6.9985-6.9985-10.999" fill="none" stroke="#000" stroke-linecap="round" stroke-linejoin="round" stroke-width="7.62"/>
 <path transform="matrix(1.1024 0 0 1.1024 70 0)" d="m283 275-33.001 57.001h46.002" fill="none" stroke="#000" stroke-linecap="round" stroke-linejoin="round" stroke-width="7.62"/>
 <path transform="matrix(1.1024 0 0 1.1024 70 0)" d="m296 332-100 137" fill="none" stroke="#000" stroke-linecap="round" stroke-linejoin="round" stroke-width="7.62"/>
 <path transform="matrix(1.1024 0 0 1.1024 70 0)" d="m283 275-33.001 57.001h46.002" fill="none" stroke="#000" stroke-linecap="round" stroke-linejoin="round" stroke-width="7.62"/>
 <path transform="matrix(1.1024 0 0 1.1024 70 0)" d="m249 275-47.001 81.001h48.001" fill="none" stroke="#000" stroke-linecap="round" stroke-linejoin="round" stroke-width="7.62"/>
 <path transform="matrix(1.1024 0 0 1.1024 70 0)" d="m250 356-54 113" fill="none" stroke="#000" stroke-linecap="round" stroke-linejoin="round" stroke-width="7.62"/>
 <path transform="matrix(1.1024 0 0 1.1024 70 0)" d="m365 308-37.002 63" fill="none" stroke="#000" stroke-linecap="round" stroke-linejoin="round" stroke-width="7.62"/>
 <path transform="matrix(1.1024 0 0 1.1024 70 0)" d="m135 308-37.002 63" fill="none" stroke="#000" stroke-linecap="round" stroke-linejoin="round" stroke-width="7.62"/>
 <path transform="matrix(1.1024 0 0 1.1024 70 0)" d="m396 391-37.002 64" fill="none" stroke="#000" stroke-linecap="round" stroke-linejoin="round" stroke-width="7.62"/>
 <path transform="matrix(1.1024 0 0 1.1024 70 0)" d="m165 391-36.002 64" fill="none" stroke="#000" stroke-linecap="round" stroke-linejoin="round" stroke-width="7.62"/>
 <g>
  <use x="70" y="576.535156" xlink:href="#w"/>
  <use x="74.046875" y="576.535156" xlink:href="#b"/>
  <use x="76.761719" y="576.535156" xlink:href="#a"/>
  <use x="80.5" y="576.535156" xlink:href="#e"/>
  <use x="84.222656" y="576.535156" xlink:href="#c"/>
  <use x="86.855469" y="576.535156" xlink:href="#a"/>
  <use x="90.59375" y="576.535156" xlink:href="#k"/>
  <use x="96.457031" y="576.535156" xlink:href="#j"/>
  <use x="100.402344" y="576.535156" xlink:href="#i"/>
  <use x="105.914062" y="576.535156" xlink:href="#h"/>
  <use x="110.179688" y="576.535156" xlink:href="#v"/>
  <use x="112.070312" y="576.535156" xlink:href="#a"/>
  <use x="115.808594" y="576.535156" xlink:href="#u"/>
  <use x="121.28125" y="576.535156" xlink:href="#t"/>
  <use x="126.769531" y="576.535156" xlink:href="#g"/>
  <use x="130.691406" y="576.535156" xlink:href="#b"/>
  <use x="133.410156" y="576.535156" xlink:href="#e"/>
  <use x="137.128906" y="576.535156" xlink:href="#f"/>
  <use x="140.722656" y="576.535156" xlink:href="#a"/>
  <use x="144.460938" y="576.535156" xlink:href="#f"/>
  <use x="70" y="582.046875" xlink:href="#s"/>
  <use x="72.398438" y="582.046875" xlink:href="#b"/>
  <use x="75.117188" y="582.046875" xlink:href="#d"/>
  <use x="78.902344" y="582.046875" xlink:href="#r"/>
  <use x="86.566406" y="582.046875" xlink:href="#c"/>
  <use x="89.199219" y="582.046875" xlink:href="#q"/>
  <use x="93.125" y="582.046875" xlink:href="#a"/>
  <use x="98.78125" y="582.046875" xlink:href="#p"/>
  <use x="103.394531" y="582.046875" xlink:href="#d"/>
  <use x="107.179688" y="582.046875" xlink:href="#g"/>
  <use x="111.105469" y="582.046875" xlink:href="#o"/>
  <use x="116.949219" y="582.046875" xlink:href="#n"/>
  <use x="120.988281" y="582.046875" xlink:href="#b"/>
  <use x="123.707031" y="582.046875" xlink:href="#d"/>
  <use x="127.492188" y="582.046875" xlink:href="#m"/>
  <use x="129.382812" y="582.046875" xlink:href="#a"/>
  <use x="133.121094" y="582.046875" xlink:href="#l"/>
  <use x="136.386719" y="582.046875" xlink:href="#c"/>
 </g>
</svg>
